<?xml version="1.0" encoding="UTF-8" standalone="no"?>
<!-- Created with Inkscape (http://www.inkscape.org/) -->

<svg
   width="80mm"
   height="100mm"
   viewBox="0 0 80 100"
   version="1.1"
   id="svg1"
   sodipodi:docname="niwrap_logo_new.svg"
   inkscape:version="1.4.2 (f4327f4, 2025-05-13)"
   xmlns:inkscape="http://www.inkscape.org/namespaces/inkscape"
   xmlns:sodipodi="http://sodipodi.sourceforge.net/DTD/sodipodi-0.dtd"
   xmlns="http://www.w3.org/2000/svg"
   xmlns:svg="http://www.w3.org/2000/svg">
  <sodipodi:namedview
     id="namedview1"
     pagecolor="#ffffff"
     bordercolor="#000000"
     borderopacity="0.25"
     inkscape:showpageshadow="2"
     inkscape:pageopacity="0.0"
     inkscape:pagecheckerboard="0"
     inkscape:deskcolor="#d1d1d1"
     inkscape:document-units="mm"
     inkscape:zoom="1.4378367"
     inkscape:cx="76.156075"
     inkscape:cy="176.30653"
     inkscape:window-width="1920"
     inkscape:window-height="1009"
     inkscape:window-x="1912"
     inkscape:window-y="-8"
     inkscape:window-maximized="1"
     inkscape:current-layer="layer1" />
  <defs
     id="defs1" />
  <g
     inkscape:label="Layer 1"
     inkscape:groupmode="layer"
     id="layer1"
     transform="translate(-51.064584,-78.316667)">
    <path
       style="fill:#ffffff;stroke-width:0.264583"
       d="m 57.137075,138.48953 v 22.2658 c 24.556578,12.01903 44.490665,9.51023 62.197025,0 v -21.71376 c -22.882577,11.10472 -43.232236,8.91162 -62.197025,-0.55204 z"
       id="path1"
       sodipodi:nodetypes="ccccc" />
    <g
       id="g1"
       transform="matrix(0.91621844,0,0,0.91621844,-40.742684,14.177092)">
      <path
         style="fill:#f5a464;fill-opacity:1;stroke-width:0.264583"
         d="m 107.28943,160.53846 c 19.52258,10.33472 45.17828,9.91725 66.98141,0.55204 l -0.36803,5.52045 c 0,0.19919 -8.91213,8.49975 -33.30669,9.9368 -31.02095,1.8274 -34.45449,-15.13156 -33.30669,-16.00929 z"
         id="path3"
         sodipodi:nodetypes="cccsc" />
      <path
         style="fill:#ff6e00;fill-opacity:1;stroke-width:0.264583"
         d="m 167.64631,83.252219 7.91264,-8.6487 7.17657,9.01673 -6.80854,7.36059 z"
         id="path4" />
      <path
         style="fill:#ffd388;fill-opacity:1;stroke-width:0.264583"
         d="m 107.28943,135.32843 v -17.48141 c -1.76588,-7.83745 -10.528336,-13.45647 6.44052,-27.234211 l 2.02416,3.12826 c -6.39209,6.533891 -7.64333,13.463241 -1.2881,20.977691 l 19.68959,17.66543 25.39405,-10.67286 c 5.95995,-5.45287 15.26443,-8.84757 15.45725,-17.84944 l 3.31227,0.18401 c 0.83607,4.79728 0.43225,9.18126 -3.12825,12.51301 v 19.87361 c -25.06267,11.04751 -47.74578,10.91111 -67.90149,-1.10409 z"
         id="path5"
         sodipodi:nodetypes="cccccccccccc" />
      <path
         style="fill:#ff7095;fill-opacity:1;stroke-width:0.264583"
         d="m 134.52363,132.38419 9.20074,-3.49628 0.73606,-18.95353 c -0.99501,-5.90902 -4.10619,-5.46954 -6.99256,-5.70446 -5.524,-2.13522 -5.95064,-7.407271 -5.15242,-13.433091 -12.96777,-2.80836 -21.06688,0.67198 -22.2658,13.065061 0.35319,4.10333 1.43502,7.91521 4.23234,11.04089 z"
         id="path6"
         sodipodi:nodetypes="cccccccc" />
      <path
         style="fill:#47c75d;fill-opacity:1;stroke-width:0.264583"
         d="m 145.19649,128.33586 -2.20818,-7.54461 2.02417,-9.38475 c 0.90766,-2.99548 3.69814,-4.42194 7.54461,-4.96841 l 9.75278,0.18402 c 3.93268,2.49533 4.57945,5.9295 5.15242,9.38476 -7.09453,7.05629 -14.6955,9.55467 -22.2658,12.32899 z"
         id="path7"
         sodipodi:nodetypes="ccccccc" />
      <path
         style="fill:#47c75d;fill-opacity:1;stroke-width:0.264583"
         d="m 121.27456,89.324709 9.56877,-0.18401 -1.2881,-7.3606 c -4.42814,0.42998 -7.76034,2.22988 -8.28067,7.54461 z"
         id="path8"
         sodipodi:nodetypes="cccc" />
      <path
         style="fill:#72739c;fill-opacity:1;stroke-width:0.264583"
         d="m 157.34147,96.133259 3.86431,-8.6487 c 9.39447,2.87228 13.23526,9.31478 15.82528,16.561341 l -9.56877,11.40892 c -1.02594,-5.19527 -3.7602,-8.11279 -7.72862,-9.38476 0.40457,-4.11358 0.12757,-7.772781 -2.3922,-9.936801 z"
         id="path9"
         sodipodi:nodetypes="cccccc" />
      <path
         style="fill:#ffc800;fill-opacity:1;stroke-width:0.264583"
         d="m 132.8675,90.980839 c -2.30732,-6.33314 -6.90656,-12.82434 4.41635,-18.21747 6.6667,-0.69675 11.61077,0.75978 14.35316,4.9684 11.42351,2.38655 9.2499,10.0365 5.70446,18.21748 1.95192,3.43494 2.93975,6.869881 1.47212,10.304831 -9.95902,-0.19019 -11.97778,1.82526 -13.24907,4.04833 -1.17688,-3.58961 -3.98255,-5.91238 -9.56877,-6.07249 -2.71307,-3.16362 -6.09047,-5.828991 -3.12825,-13.249081 z"
         id="path10"
         sodipodi:nodetypes="cccccccc" />
      <path
         style="fill:#cce0fb;fill-opacity:1;stroke-width:0.264583"
         d="m 169.85448,138.08865 c 0,24.28996 0,24.10594 0,24.10594 l 4.78439,-2.94423 v -22.81784 0 z"
         id="path12" />
      <path
         style="fill:#f1a66b;fill-opacity:1;stroke-width:0.264583"
         d="m 169.91503,113.95003 v 24.10594 l 4.78439,-2.94423 v -17.78471 c 2.44668,-4.0117 2.89129,-6.81086 3.64331,-11.79928 l -3.05778,-0.19518 z"
         id="path12-1"
         sodipodi:nodetypes="ccccccc" />
      <path
         style="fill:#ed3476;fill-opacity:1;stroke-width:0.264583"
         d="m 110.79887,105.29399 c 3.90659,6.1742 5.54967,3.25475 6.26798,-0.91736 l 3.01641,4.26368 -6.11556,6.11555 z"
         id="path13"
         sodipodi:nodetypes="ccccc" />
      <path
         style="fill:#ed3476;fill-opacity:1;stroke-width:0.264583"
         d="m 116.92885,116.02547 c 1.93761,1.49063 4.2299,0.79832 5.68054,-0.1459 l -1.09484,5.25209 z"
         id="path14"
         sodipodi:nodetypes="cccc" />
      <path
         style="fill:#ed3476;fill-opacity:1;stroke-width:0.264583"
         d="m 124.34829,115.94001 c -1.22988,5.58339 3.00547,6.91603 5.49383,6.49283 l -1.17107,5.46496 -6.5059,-5.59508 z"
         id="path15"
         sodipodi:nodetypes="ccccc" />
      <path
         style="fill:#ed3476;fill-opacity:1;stroke-width:0.264583"
         d="m 143.13649,123.62622 c -9.16762,8.29616 -13.05236,1.16892 -10.55918,-4.06523 l -4.00481,7.55339 5.56352,6.24838 9.75886,-5.20472 z"
         id="path16"
         sodipodi:nodetypes="cccccc" />
      <path
         style="fill:#3b8e55;fill-opacity:1;stroke-width:0.264583"
         d="m 144.48504,120.44024 c 2.14492,2.20968 3.50727,2.95022 6.50319,1.06598 l 1.23421,4.70004 -7.02638,1.95178 z"
         id="path17"
         sodipodi:nodetypes="ccccc" />
      <path
         style="fill:#3e3f80;fill-opacity:1;stroke-width:0.264583"
         d="m 160.55,103.43558 c 2.6631,0.30371 5.10063,1.35844 7.09607,4.16379 l 2.79291,-1.95178 0.13012,8.32756 -3.51319,2.0819 c -0.82166,-5.82353 -4.11467,-8.68144 -6.50591,-12.62147 z"
         id="path18"
         sodipodi:nodetypes="cccccc" />
      <path
         style="fill:#3e3f80;fill-opacity:1;stroke-width:0.264583"
         d="m 173.55258,98.954959 c -0.35135,2.751101 -0.89834,5.267421 -2.46301,6.562521 l 0.39036,5.33484 2.34213,-1.82165 z"
         id="path19"
         sodipodi:nodetypes="ccccc" />
      <path
         style="fill:#000000;stroke-width:0.414756"
         d="m 135.61673,178.43343 c -5.67461,-0.33971 -11.30859,-1.21633 -15.43413,-2.4015 -9.02183,-2.59175 -13.34332,-6.51989 -14.82167,-13.47257 l -0.2512,-1.18137 -0.0295,-22.09808 c -0.0285,-21.32544 -0.0366,-22.10816 -0.23324,-22.38643 -0.3646,-0.5161 -1.13045,-2.1283 -1.55827,-3.28037 -1.20553,-3.2463 -1.48965,-7.18974 -0.765,-10.61802 0.71311,-3.373711 2.47348,-6.861801 4.83387,-9.578091 2.71751,-3.12725 6.97096,-5.86683 11.61849,-7.48329 l 1.4969,-0.52064 0.41274,-0.7463 c 0.55221,-0.99846 1.15926,-1.76883 2.04796,-2.59891 1.24618,-1.16399 2.54142,-1.78709 4.34973,-2.09253 l 0.86118,-0.14546 0.28387,-0.98102 c 1.04869,-3.62428 3.57893,-6.17834 7.32487,-7.39384 1.7349,-0.56295 3.27658,-0.8067 5.13081,-0.8112 3.81852,-0.009 7.1106,1.00129 9.34963,2.87002 0.43565,0.36361 1.53468,1.64654 1.76863,2.06458 0.06,0.10728 0.37868,0.20086 0.90679,0.2663 1.51192,0.18734 2.93727,0.73458 4.27096,1.63975 2.38145,1.6163 4.14017,4.47613 4.45297,7.24094 l 0.0723,0.63859 0.72773,0.24404 c 2.88318,0.96685 7.29028,3.57026 9.5364,5.63347 0.25775,0.23675 0.49441,0.40468 0.52591,0.37318 0.11739,-0.11739 -0.32085,-1.59612 -0.72679,-2.45232 -0.7235,-1.52601 -2.29357,-2.75159 -4.41231,-3.44421 -1.49784,-0.48964 -2.16884,-1.20885 -2.25085,-2.41255 -0.0829,-1.21646 0.62058,-1.98697 2.45943,-2.69387 3.40812,-1.31019 4.20738,-2.25412 5.14279,-6.07366 0.36064,-1.47263 0.74468,-2.12701 1.47159,-2.50751 1.13359,-0.59338 2.64749,-0.0933 3.25266,1.07444 0.0813,0.1568 0.34802,1.01311 0.59278,1.90288 0.70422,2.56006 1.2854,3.57252 2.51545,4.38211 0.69391,0.45671 0.99678,0.59385 3.04248,1.37765 1.47697,0.5659 2.09493,1.41499 1.99864,2.74619 -0.0795,1.09912 -0.73878,1.74306 -2.31671,2.26284 -1.82689,0.60178 -3.04183,1.30887 -3.71307,2.16097 -0.65374,0.82988 -1.19912,2.22403 -1.73835,4.44369 -0.1583,0.6516 -0.35982,1.17187 -0.56205,1.45104 -0.32488,0.44848 -1.01701,0.88014 -1.41123,0.88014 -0.28982,0 -0.28609,0.23904 0.008,0.50425 0.42413,0.38264 1.96557,2.79716 2.50574,3.92501 2.47164,5.160651 2.45119,10.753741 -0.0588,16.081521 -0.26751,0.56782 -0.63396,1.27225 -0.81435,1.56541 l -0.32796,0.53302 -2.7e-4,20.76615 c -1.7e-4,13.20848 -0.0414,21.30532 -0.11326,22.24761 -0.33852,4.43826 -1.76537,7.64989 -4.59496,10.34261 -4.15795,3.95683 -12.15732,6.62912 -22.78073,7.61019 -2.20967,0.20406 -11.46468,0.2997 -14.04639,0.14515 z m 12.94901,-4.20913 c 9.05163,-0.7993 15.73272,-2.55033 19.643,-5.14819 2.42705,-1.61246 4.16697,-3.82751 4.60509,-5.86266 l 0.0773,-0.35929 -0.7274,0.55057 c -3.52767,2.67008 -9.76974,4.91375 -16.79431,6.03661 -12.01805,1.92105 -26.57713,1.17564 -36.4909,-1.86828 -3.6072,-1.10755 -7.05202,-2.69587 -9.07287,-4.18329 -0.31429,-0.23133 -0.59349,-0.42059 -0.62045,-0.42059 -0.0776,0 0.34221,1.05077 0.71608,1.7923 1.21214,2.40412 2.91196,3.97197 5.85294,5.39854 4.8171,2.33662 11.41207,3.68536 20.8501,4.26404 1.70827,0.10474 10.10015,-0.0354 11.96138,-0.19976 z m 0.0549,-7.35065 c 5.91514,-0.56087 10.32167,-1.39919 14.39721,-2.73902 3.92183,-1.28929 7.53382,-3.22298 9.44324,-5.05547 l 0.52125,-0.50026 v -10.0334 -10.0334 l -1.06993,0.67495 c -2.29376,1.44697 -5.93,3.09401 -9.1654,4.15149 -8.18834,2.67633 -19.0484,3.60804 -29.81882,2.55823 -9.61017,-0.93672 -17.36167,-3.18719 -22.86583,-6.63857 -0.58961,-0.36971 -1.09005,-0.65418 -1.11209,-0.63214 -0.022,0.022 -0.0531,4.52928 -0.069,10.01608 l -0.0289,9.97601 0.65264,0.59551 c 2.63536,2.40467 7.87708,4.71636 13.75216,6.06494 3.16164,0.72574 8.68883,1.49833 12.4693,1.74297 2.35605,0.15246 10.74062,0.0563 12.89414,-0.14792 z m -9.25841,-5.14207 c -0.19625,-0.19626 -0.42241,-0.94049 -1.05254,-3.46365 -0.44142,-1.76752 -0.83756,-3.17353 -0.88031,-3.12446 -0.0428,0.0491 -0.43803,1.42253 -0.87839,3.05213 -0.44037,1.6296 -0.86578,3.09243 -0.94536,3.25074 -0.18683,0.37167 -0.31589,0.39676 -1.65956,0.3227 -0.93128,-0.0513 -1.15996,-0.0999 -1.34533,-0.28541 -0.22813,-0.22838 -1.47918,-5.03831 -2.58977,-9.95688 -0.5692,-2.52087 -0.55712,-2.66776 0.21097,-2.56466 0.25115,0.0337 0.80231,0.092 1.2248,0.12956 1.05501,0.0937 1.12329,0.12227 1.25005,0.52224 0.1215,0.38336 0.5868,2.91813 1.06669,5.81084 0.16771,1.01096 0.33975,1.8381 0.3823,1.8381 0.0426,0 0.13859,-0.25925 0.21342,-0.57612 0.0748,-0.31687 0.5239,-2.00819 0.99795,-3.75851 0.58006,-2.14176 0.9249,-3.23071 1.05457,-3.33016 0.28325,-0.21726 2.11256,-0.0966 2.29383,0.1513 0.072,0.0985 0.53555,1.84172 1.03,3.87376 0.49445,2.03203 0.93776,3.73646 0.98514,3.78762 0.0992,0.10709 0.19252,-0.29418 1.04275,-4.48252 0.41123,-2.02573 0.68551,-3.13594 0.805,-3.25843 0.1462,-0.14986 0.43594,-0.1923 1.4981,-0.21947 l 1.31685,-0.0337 -0.0106,0.38942 c -0.006,0.21418 -0.31353,1.54749 -0.68383,2.96291 -0.3703,1.41542 -1.02492,3.93149 -1.45472,5.59127 -0.77543,2.99453 -0.89944,3.38205 -1.13201,3.53735 -0.0664,0.0443 -0.65385,0.0814 -1.30541,0.0823 -1.08771,0.002 -1.20512,-0.0188 -1.43463,-0.24829 z m 21.99966,0.10804 c -0.0856,-0.0856 -0.12145,-1.76762 -0.12145,-5.69611 0,-6.4269 -0.10925,-5.85562 1.18032,-6.17165 0.9422,-0.2309 1.25972,-0.19984 1.33914,0.13097 0.0566,0.23588 0.0794,0.22656 0.49475,-0.20198 0.82329,-0.84955 1.93658,-1.1707 2.84959,-0.82202 0.56766,0.21679 1.30945,0.97598 1.60382,1.64144 0.79581,1.79907 0.32778,4.74157 -0.99283,6.24185 -0.88319,1.00336 -2.38274,1.64885 -3.26274,1.40447 -0.22756,-0.0632 -0.44361,-0.11517 -0.48011,-0.11551 -0.0365,-3.4e-4 -0.0519,0.50555 -0.0342,1.1242 0.0457,1.59584 -0.0209,1.83653 -0.56029,2.02545 -1.10915,0.38849 -1.89528,0.55963 -2.01601,0.43889 z m 4.27758,-6.36327 c 0.56477,-0.38059 0.86445,-0.99627 0.86639,-1.77998 0.005,-2.13258 -1.78566,-2.18938 -2.47119,-0.0784 -0.48641,1.49786 0.47967,2.61658 1.6048,1.85835 z m -19.47942,6.14948 c -0.16121,-0.24603 -0.17715,-0.74062 -0.14936,-4.63263 0.0365,-5.10872 -0.0967,-4.66855 1.41208,-4.66855 0.77166,0 0.96777,0.0335 1.02188,0.17451 0.0368,0.096 0.0392,0.21943 0.005,0.27434 -0.12799,0.20709 0.0965,0.0866 0.53019,-0.28468 0.47467,-0.4063 0.89405,-0.56758 1.76371,-0.67826 0.39427,-0.0502 0.55717,-0.0279 0.62931,0.086 0.0535,0.0846 0.0981,0.63167 0.099,1.21583 0.002,1.22582 -0.0628,1.34237 -0.80788,1.4541 -0.66572,0.0998 -1.1712,0.46046 -1.46749,1.04697 -0.23544,0.46604 -0.24691,0.61004 -0.24691,3.09919 0,2.46413 -0.0123,2.62275 -0.21948,2.82992 -0.12891,0.12892 -0.36663,0.2198 -0.57612,0.22026 -0.19615,4.1e-4 -0.68449,0.0317 -1.08519,0.0696 -0.69234,0.0654 -0.73751,0.0551 -0.90902,-0.20662 z m -18.62118,-0.35148 c -0.0268,-0.0268 -0.44176,-0.0975 -0.92209,-0.15719 -1.34902,-0.16748 -1.26047,0.15479 -1.26047,-4.58699 0,-2.38092 0.0432,-4.08118 0.10669,-4.19982 0.0587,-0.10965 0.18278,-0.22855 0.27577,-0.26424 0.17619,-0.0676 2.17536,0.19869 2.36322,0.31479 0.0672,0.0415 0.10749,1.66597 0.10749,4.33189 0,3.73135 -0.0216,4.28703 -0.17244,4.43788 -0.16676,0.16676 -0.39775,0.2241 -0.49817,0.12368 z m 26.25556,-0.62363 c -0.34037,-0.0806 -0.64515,-0.27627 -1.06021,-0.68058 -0.49203,-0.47929 -0.62238,-0.69527 -0.83916,-1.39046 -0.36708,-1.17719 -0.34684,-2.98511 0.047,-4.19679 0.50427,-1.55151 1.29657,-2.45791 2.56252,-2.93156 1.10618,-0.41388 1.75834,-0.40522 2.7861,0.037 0.10862,0.0467 0.20277,-0.0141 0.27434,-0.17726 0.0895,-0.204 0.28145,-0.28446 1.07379,-0.45006 0.76106,-0.15907 0.9986,-0.17361 1.12481,-0.0689 0.13513,0.11215 0.15999,0.79322 0.15999,4.3821 0,4.9082 0.10145,4.50188 -1.19197,4.77396 -1.07192,0.22549 -1.10747,0.22042 -1.18539,-0.16916 l -0.0674,-0.33695 -0.31284,0.34252 c -0.68268,0.74743 -2.21299,1.14054 -3.37157,0.8661 z m 2.58416,-3.29659 c 0.65716,-0.61322 0.88107,-1.68947 0.51292,-2.4653 -0.21974,-0.46306 -0.53951,-0.69865 -0.94833,-0.69865 -0.69676,0 -1.28203,0.55569 -1.5192,1.44242 -0.18475,0.69078 -0.0492,1.26101 0.40854,1.71877 0.33948,0.33948 0.42453,0.37231 0.82517,0.31858 0.24943,-0.0335 0.56776,-0.17292 0.7209,-0.31582 z m -34.62601,2.86871 c -0.68441,-0.17055 -1.33151,-0.38894 -1.43801,-0.48532 -0.10648,-0.0964 -1.07716,-1.97653 -2.15704,-4.17813 -1.07989,-2.2016 -2.00158,-4.0029 -2.0482,-4.0029 -0.0466,0 -0.0724,1.52998 -0.0573,3.39997 0.0235,2.9076 0.003,3.42392 -0.13788,3.56529 -0.14726,0.14726 -0.27498,0.12615 -1.16953,-0.19324 -1.62845,-0.58144 -1.45939,0.19713 -1.45939,-6.72073 0,-5.21746 0.0207,-5.96747 0.16857,-6.09014 0.1393,-0.11561 0.40133,-0.0682 1.50889,0.2733 0.73718,0.22727 1.42465,0.49405 1.52772,0.59286 0.10306,0.0988 1.05637,2.05615 2.11846,4.34966 1.06208,2.29351 1.97773,4.21693 2.03478,4.27427 0.0652,0.0655 0.10373,-1.26606 0.10373,-3.58046 0,-3.05767 0.0267,-3.70683 0.15659,-3.81468 0.12205,-0.10129 0.40655,-0.077 1.28941,0.11013 0.62305,0.13205 1.22435,0.28773 1.33623,0.34595 0.19502,0.10148 0.2018,0.35448 0.1646,6.14032 -0.0375,5.82305 -0.0463,6.03993 -0.25181,6.19022 -0.26147,0.19117 -0.18132,0.19954 -1.68979,-0.17637 z m 4.59137,-9.40228 c -0.26305,-0.0961 -0.66526,-0.4991 -0.84696,-0.84849 -0.19381,-0.37269 -0.20454,-1.17887 -0.0216,-1.62061 0.16905,-0.40812 0.74227,-0.74561 1.26555,-0.74511 1.13718,0.001 1.89853,1.32509 1.42024,2.4698 -0.26279,0.62896 -1.14478,0.99025 -1.81727,0.74441 z m 16.56263,-8.01563 c -0.004,-0.0453 -1.54268,-1.39092 -3.41875,-2.99034 -7.28489,-6.21067 -15.60302,-13.4305 -18.95739,-16.45433 -3.99865,-3.60462 -6.23432,-5.90098 -8.4594,-8.68907 -2.6666,-3.34133 -3.86388,-6.16672 -4.01667,-9.47876 -0.18751,-4.06445 1.13135,-7.383201 4.33888,-10.918261 0.43841,-0.48318 0.753,-0.8785 0.6991,-0.8785 -0.0539,0 -0.6128,0.46266 -1.24199,1.02815 -5.06874,4.55549 -7.14274,11.434671 -5.20392,17.260701 0.93312,2.80398 2.16773,4.58881 5.39982,7.80631 1.04867,1.04395 1.95396,2.02245 2.01176,2.17446 0.28708,0.75508 -0.0198,1.68822 -0.66985,2.03685 -0.86052,0.4615 -1.36251,0.23362 -3.0329,-1.37683 -0.72781,-0.7017 -1.35396,-1.27582 -1.39143,-1.27582 -0.0375,0 -0.0681,2.97898 -0.0681,6.61995 v 6.61996 l 0.68586,0.55425 c 5.33367,4.31028 15.2921,7.22931 27.02284,7.92099 2.00644,0.11831 6.31208,0.14583 6.30218,0.0403 z m 7.0066,-0.41289 c 4.36554,-0.44854 8.26085,-1.22348 11.93082,-2.37354 3.69693,-1.15852 8.12823,-3.2896 10.50858,-5.05375 l 0.74195,-0.54988 -0.004,-8.89127 -0.004,-8.89127 0.6722,-0.98144 c 1.2643,-1.84593 2.21663,-4.18497 2.5603,-6.28843 0.17891,-1.09502 0.2749,-2.57883 0.16683,-2.57883 -0.0383,0 -0.15702,0.32295 -0.26387,0.71768 -0.4964,1.83384 -2.1618,4.54228 -4.15902,6.76383 -5.74528,6.39058 -17.77728,13.15681 -31.79064,17.87756 -1.65552,0.5577 -3.03091,1.03088 -3.05642,1.0515 -0.0255,0.0206 0.17124,0.22237 0.43725,0.44833 0.26601,0.22596 1.74096,1.52193 3.27767,2.87993 6.18632,5.46691 6.85651,6.03556 7.11324,6.03556 0.1392,0 0.98006,-0.0747 1.86859,-0.16598 z M 136.2866,129.72635 c 2.79857,-0.87836 5.48264,-1.81666 5.80972,-2.03097 0.78255,-0.51275 0.98381,-2.71568 0.36,-3.94051 -0.55163,-1.08311 -1.13658,-1.56203 -2.35072,-1.92457 -0.41677,-0.12445 -0.86244,-0.29995 -0.99037,-0.39 -0.59699,-0.42025 -0.7773,-1.61348 -0.34264,-2.26755 0.27378,-0.41197 1.06673,-0.86669 1.51134,-0.86669 0.56027,0 1.4386,-0.34365 1.86657,-0.7303 0.72313,-0.6533 0.8588,-1.68309 0.35228,-2.67372 -0.52562,-1.02798 -0.55921,-1.03884 -3.24532,-1.05003 -1.93904,-0.008 -2.5201,-0.0498 -3.50896,-0.25192 -2.48252,-0.50743 -4.31945,-1.27799 -6.42654,-2.69579 l -1.24687,-0.83899 -0.56379,0.108 c -1.51044,0.28934 -2.95259,0.23899 -4.9655,-0.17339 l -0.89009,-0.18236 -0.53649,0.31166 c -1.92314,1.11718 -3.40834,2.75977 -3.81914,4.22386 l -0.18938,0.67493 0.26685,0.34961 c 0.49086,0.64307 2.84133,3.03817 2.98157,3.03817 0.0802,0 0.19007,-0.25705 0.26106,-0.61053 0.34205,-1.70319 1.883,-3.7483 3.10692,-4.12343 0.88997,-0.27277 1.77295,0.25655 1.90518,1.14208 0.0966,0.64678 -0.0758,1.01863 -0.82548,1.78122 -0.95938,0.97583 -1.2383,1.66515 -1.28767,3.18238 -0.0276,0.84698 0.003,1.28662 0.10335,1.47363 0.15737,0.29404 3.93341,3.84863 4.0884,3.84863 0.0328,0 0.0597,-0.43653 0.0597,-0.97008 0,-2.03502 0.79777,-4.00017 2.19237,-5.40042 1.65202,-1.65873 3.21606,-1.99715 3.89762,-0.84336 0.45393,0.76844 0.19345,1.65604 -0.64223,2.18844 -1.12734,0.71821 -1.91786,1.60586 -2.30014,2.58275 -0.26738,0.68325 -0.40637,2.15186 -0.29078,3.07243 0.0542,0.4313 0.24933,1.1754 0.43373,1.65355 0.32468,0.84194 0.37338,0.90273 1.5433,1.92673 0.66442,0.58155 1.29817,1.05736 1.40832,1.05736 0.11016,0 1.1334,-0.29287 2.27388,-0.65082 z m 12.26056,-4.62196 1.66884,-0.76597 -0.002,-1.29003 c -0.002,-1.23901 0.0122,-1.31905 0.35917,-2.02394 0.56056,-1.13881 1.20248,-1.61506 3.43339,-2.54729 1.48321,-0.61978 2.06655,-0.94162 2.63094,-1.45152 0.68541,-0.61922 1.07268,-1.33162 1.29651,-2.38498 0.23259,-1.09459 0.54997,-1.53091 1.25085,-1.71964 0.54103,-0.14568 1.02998,0.006 1.45806,0.45307 0.27256,0.28448 0.32236,0.43409 0.35872,1.07752 0.10967,1.94089 -1.20622,4.54552 -2.9525,5.84406 -0.41956,0.31199 -0.73966,0.59043 -0.71133,0.61876 0.1003,0.1003 4.95319,-2.96767 6.00449,-3.79601 1.14042,-0.89856 1.43313,-1.47118 1.49902,-2.93247 0.0544,-1.20626 -0.13356,-2.02909 -0.75884,-3.32231 -0.54892,-1.13528 -1.60183,-2.25374 -2.53183,-2.68945 -1.03785,-0.48625 -2.60448,-0.57287 -4.26067,-0.2356 -0.95516,0.19452 -2.49389,0.246 -3.9322,0.13157 -1.39772,-0.11119 -1.67875,-0.10334 -2.52396,0.0706 -1.78505,0.36732 -3.02424,1.29354 -3.77714,2.82315 -0.63823,1.29667 -0.70134,1.66111 -0.51554,2.97728 0.0875,0.62019 0.15918,1.76958 0.15918,2.55421 0,1.72358 -0.23456,2.61397 -0.98238,3.72916 l -0.48654,0.72556 0.3706,1.13135 c 0.41788,1.27565 0.71424,2.70154 0.71424,3.43642 0,0.47485 0.0107,0.49091 0.28108,0.42304 0.1546,-0.0388 1.03207,-0.41524 1.94992,-0.83653 z m 2.48456,-9.88119 c -0.86741,-0.50322 -1.19864,-1.56314 -0.76707,-2.45465 0.34026,-0.70289 0.87557,-1.04674 1.62957,-1.04674 1.03073,0 1.61788,0.438 1.87696,1.40016 0.41893,1.55579 -1.34607,2.90958 -2.73946,2.10123 z m 17.77503,-3.45683 c 0.31076,-0.83057 0.48407,-2.34531 0.40045,-3.49994 -0.10264,-1.41725 -0.44233,-2.69259 -1.05261,-3.9519 -0.8047,-1.6605 -1.90533,-2.77392 -3.33636,-3.37515 -1.29712,-0.54497 -1.78318,-1.240601 -1.50817,-2.158501 0.13903,-0.46402 0.63301,-0.95375 1.07356,-1.06432 0.45646,-0.11457 1.46112,0.15429 2.54279,0.68049 1.64989,0.80263 3.01527,2.303781 3.97307,4.368121 0.73897,1.5927 1.26017,3.44914 1.33616,4.75917 0.0184,0.31685 0.0669,0.5761 0.10783,0.57612 0.0409,1e-5 0.1813,-0.28393 0.31194,-0.63098 0.8421,-2.23708 1.0294,-4.87227 0.49333,-6.94088 -0.90908,-3.508051 -3.48459,-6.589051 -7.68341,-9.191441 -1.10405,-0.68428 -3.44753,-1.93832 -3.50748,-1.87692 -0.0214,0.0219 -0.11921,0.50694 -0.21749,1.07796 -0.30656,1.78129 -0.98049,3.52373 -1.89642,4.90323 l -0.38858,0.58523 0.56218,0.81322 c 0.62164,0.89923 1.12983,2.06666 1.39231,3.198471 0.16143,0.69605 0.24395,3.06862 0.1202,3.45573 -0.23228,0.72657 -0.2295,0.73147 0.561,0.98987 1.05919,0.34624 2.29637,1.0098 2.95116,1.58286 1.43651,1.25721 2.55458,3.35242 3.06735,5.74811 0.2211,1.03295 0.29446,1.02784 0.69719,-0.0485 z m -53.88071,0.0754 c 0.39773,-0.77962 1.51681,-2.04873 2.57232,-2.91719 l 1.04033,-0.85597 -0.50336,-0.61506 c -0.5976,-0.73021 -1.2719,-2.09196 -1.52718,-3.08414 -0.26968,-1.04819 -0.26026,-2.26143 0.0213,-2.74307 0.59635,-1.02006 1.85017,-1.17806 2.49154,-0.31396 0.14471,0.19497 0.24401,0.57554 0.3031,1.16168 0.23033,2.28479 1.89867,4.04624 4.34861,4.59129 1.19776,0.26649 2.04741,0.16106 3.17341,-0.39374 0.91655,-0.45159 1.49486,-0.54497 1.9467,-0.31431 0.13183,0.0673 0.55573,0.4436 0.942,0.83622 1.42593,1.44937 3.47355,2.50495 6.15628,3.17367 2.73509,0.68177 4.05587,0.60717 5.07105,-0.28643 1.16524,-1.02569 1.12261,-2.16703 -0.12452,-3.33358 -0.64052,-0.59912 -0.94614,-0.6893 -2.80665,-0.82816 -1.63487,-0.12202 -2.82127,-0.44648 -3.81035,-1.04207 -1.44287,-0.86887 -2.18221,-1.71802 -3.09802,-3.55818 -0.55843,-1.12205 -1.12427,-1.824941 -1.64391,-2.042061 -0.96363,-0.40262 -2.20592,-0.26093 -2.91055,0.33197 -0.18779,0.15802 -0.53328,0.692231 -0.77437,1.197351 -0.46849,0.98158 -0.79688,1.32317 -1.3766,1.43193 -0.45528,0.0854 -1.08983,-0.20532 -1.41315,-0.64747 -0.17923,-0.24512 -0.22655,-0.4748 -0.22655,-1.09968 0,-0.671171 0.0542,-0.899951 0.36068,-1.522501 0.94873,-1.92715 3.50379,-3.06595 6.03152,-2.68826 l 0.57612,0.0861 8.3e-4,-0.41529 c 0.001,-0.68939 0.20933,-1.79167 0.51097,-2.70846 l 0.28512,-0.86659 -0.26128,-0.20309 c -0.68205,-0.53013 -2.74715,-0.75172 -5.04951,-0.54181 -2.93042,0.26716 -5.28943,1.11916 -7.55457,2.72847 -1.00284,0.71248 -2.8661,2.54735 -3.64596,3.59041 -0.84231,1.12656 -1.64643,2.778131 -2.0303,4.170021 -0.27331,0.99097 -0.30226,1.2676 -0.29857,2.85317 0.004,1.5892 0.0322,1.84726 0.30015,2.71974 0.39729,1.29343 0.82003,2.2001 1.50501,3.2278 0.60889,0.91354 0.96816,1.35 1.11125,1.35 0.0486,0 0.1868,-0.19293 0.3071,-0.42873 z m 32.33696,-6.17566 c 0.41475,-0.22232 1.19852,-0.53682 1.74172,-0.6989 0.92959,-0.27736 1.17467,-0.29992 4.17002,-0.3839 1.75031,-0.0491 3.35803,-0.14166 3.57271,-0.20574 0.44528,-0.13292 0.91303,-0.57746 1.08415,-1.03038 0.16361,-0.43303 0.14316,-2.10597 -0.0339,-2.77073 -0.14133,-0.53072 -0.71585,-1.913401 -0.79504,-1.913401 -0.0208,0 -0.31482,0.17724 -0.65348,0.39388 -0.77648,0.49671 -1.21104,0.68207 -2.2417,0.956181 -0.7559,0.20104 -1.26295,0.22264 -6.21605,0.26479 -5.65387,0.0481 -5.93353,0.0297 -6.63409,-0.435831 -1.16834,-0.77643 -1.11271,-2.75215 0.0987,-3.50541 l 0.40598,-0.25244 6.14796,-0.0549 6.14796,-0.0549 0.72098,-0.5146 c 1.8586,-1.3266 3.09435,-3.39993 3.40582,-5.71426 0.17141,-1.27367 0.0595,-3.55569 -0.22728,-4.63514 -0.40382,-1.51995 -1.02385,-2.61274 -2.09044,-3.68437 -0.75342,-0.75699 -1.11886,-1.02987 -1.86928,-1.39581 -1.00121,-0.48825 -2.31588,-0.83893 -3.59148,-0.958 l -0.79318,-0.074 -0.37911,-0.7847 c -0.97066,-2.00912 -3.01178,-3.34062 -5.91442,-3.85821 -1.45729,-0.25986 -4.20087,-0.18084 -5.56294,0.16023 -1.19064,0.29813 -2.5154,0.94408 -3.31693,1.61733 -2.25439,1.89355 -3.42001,5.3125 -2.89654,8.4961 0.23787,1.44669 1.09255,3.82846 1.37382,3.82846 0.0517,0 0.16184,-0.0826 0.24468,-0.18364 0.34165,-0.41659 1.78894,-1.47331 2.428,-1.77277 1.51362,-0.70929 1.75788,-0.73216 7.81845,-0.73216 5.21496,0 5.51641,0.0109 6.08312,0.21948 0.79325,0.29198 1.68718,1.11236 1.94766,1.7874 0.25265,0.65477 0.25845,1.91612 0.011,2.38262 -0.41469,0.78163 -0.94667,1.0425 -2.12589,1.0425 h -0.8187 l 0.16743,-0.32376 c 0.23613,-0.45664 0.20946,-0.70681 -0.11668,-1.0944 l -0.2841,-0.33764 -4.79125,0.002 c -5.2746,0.002 -5.56172,0.0299 -6.92146,0.67783 -1.99924,0.95265 -3.29453,3.32653 -3.2999,6.04774 -0.005,2.48141 1.18044,4.921231 2.82265,5.809971 0.74481,0.40308 1.56751,0.60276 2.82547,0.68579 0.60275,0.0398 1.36817,0.1224 1.70093,0.18359 1.76418,0.32441 3.45023,1.6673 4.28956,3.41649 l 0.4507,0.93929 0.58015,-0.56855 c 0.31908,-0.3127 0.91948,-0.75045 1.33423,-0.97277 z m -9.98512,-22.417291 c -0.86718,-0.30914 -1.48964,-1.2107 -1.49411,-2.16403 -0.003,-0.67944 0.1466,-1.04597 0.63128,-1.54483 1.22412,-1.25991 3.45938,-0.52046 3.69927,1.22377 0.10669,0.77569 -0.10072,1.40539 -0.64079,1.94546 -0.65577,0.65576 -1.37442,0.83239 -2.19565,0.53963 z m 38.43247,5.34583 c 0.68639,-2.35366 2.18964,-4.13439 4.29246,-5.08474 0.30328,-0.13707 0.55141,-0.27987 0.55141,-0.31734 0,-0.0375 -0.1696,-0.12946 -0.37691,-0.20442 -0.61389,-0.22199 -1.94509,-1.1495 -2.48082,-1.72851 -0.92471,-0.99943 -1.553,-2.0739 -1.97314,-3.37435 -0.13002,-0.40246 -0.27477,-0.70803 -0.32167,-0.67905 -0.0469,0.029 -0.11441,0.23227 -0.15003,0.45174 -0.0955,0.58846 -0.97603,2.31153 -1.55082,3.03468 -0.64315,0.80918 -1.52497,1.49988 -2.68106,2.09999 l -0.92007,0.47759 0.60933,0.27897 c 0.90009,0.41207 1.89992,1.12585 2.66574,1.90306 0.77424,0.78576 1.60624,2.31883 1.82535,3.36346 0.0726,0.34616 0.16131,0.62939 0.19711,0.62939 0.0358,0 0.17671,-0.38271 0.31312,-0.85047 z m -49.33604,-0.75815 c 1.93349,-0.0584 2.16415,-0.085 2.11437,-0.24356 -0.28286,-0.90107 -0.51774,-2.10959 -0.57409,-2.95384 l -0.0681,-1.02009 -0.33976,0.073 c -0.74922,0.16107 -1.73308,0.7102 -2.38306,1.33006 -0.87281,0.83236 -1.28052,1.53704 -1.56674,2.70789 -0.0752,0.30781 -0.0687,0.31339 0.28506,0.24356 0.19913,-0.0393 1.33867,-0.10099 2.5323,-0.13706 z"
         id="path2" />
      <path
         style="fill:#a8533d;fill-opacity:1;stroke-width:0.415101"
         d="m 123.59476,138.3013 c -1.18894,-0.60026 -1.14307,-2.15926 0.0788,-2.67991 0.46339,-0.19745 0.73849,-0.18998 1.20801,0.0328 0.99618,0.47272 1.08939,2.04551 0.1534,2.58965 -0.53342,0.31014 -0.91006,0.32516 -1.44034,0.0574 z m 39.9227,-2.14114 c -0.88584,-0.22597 -1.41716,-1.39796 -0.9997,-2.20522 0.25739,-0.49776 0.49375,-0.63117 2.37168,-1.33875 1.46721,-0.55282 1.89825,-0.67268 2.26892,-0.6309 0.90585,0.10211 1.54823,0.89246 1.43166,1.7615 -0.10768,0.80299 -0.30782,0.94722 -2.33743,1.68472 -1.94547,0.70693 -2.3734,0.82093 -2.73513,0.72865 z m -5.79209,-2.17923 c -0.16531,-0.0897 -0.37539,-0.30769 -0.46677,-0.48437 -0.61579,-1.19081 0.62329,-2.42892 1.81438,-1.81299 0.41031,0.21217 0.65539,0.68586 0.65539,1.2667 0,0.37187 -0.0688,0.52449 -0.37342,0.82917 -0.31259,0.31259 -0.45124,0.3727 -0.85117,0.36902 -0.26277,-0.002 -0.61305,-0.0778 -0.77841,-0.16752 z m -42.49145,-0.80172 c -0.5478,-0.34739 -0.83235,-0.82928 -0.92761,-1.57082 -0.0773,-0.60151 0.26507,-1.30658 0.86685,-1.7854 0.36544,-0.29077 0.50816,-0.33412 1.10587,-0.33586 0.56679,-0.002 0.76585,0.0506 1.1433,0.30016 1.28545,0.84987 1.17683,2.76515 -0.19867,3.50284 -0.58922,0.31601 -1.38664,0.27156 -1.98974,-0.11092 z"
         id="path11"
         sodipodi:nodetypes="csssccsssssssscsscsssscscsss" />
    </g>
  </g>
</svg>
